<mxfile host="app.diagrams.net" modified="2024-01-09T10:57:44.095Z" agent="Mozilla/5.0 (Windows NT 10.0; Win64; x64) AppleWebKit/537.36 (KHTML, like Gecko) Chrome/120.0.0.0 Safari/537.36" etag="mDjL-MAhMy4N_ygkIFxH" version="22.1.17" type="github">
  <diagram name="Page-1" id="c7558073-3199-34d8-9f00-42111426c3f3">
    <mxGraphModel dx="905" dy="517" grid="1" gridSize="1" guides="1" tooltips="1" connect="1" arrows="1" fold="1" page="1" pageScale="1" pageWidth="826" pageHeight="1169" background="none" math="0" shadow="0">
      <root>
        <mxCell id="0" />
        <mxCell id="1" parent="0" />
        <mxCell id="1fMMj_ESsbeUDZiiFBq4-128" style="edgeStyle=orthogonalEdgeStyle;rounded=0;orthogonalLoop=1;jettySize=auto;html=1;fontSize=12;" edge="1" parent="1" source="1fMMj_ESsbeUDZiiFBq4-129" target="1fMMj_ESsbeUDZiiFBq4-131">
          <mxGeometry relative="1" as="geometry" />
        </mxCell>
        <mxCell id="1fMMj_ESsbeUDZiiFBq4-129" value="connect to the instagram" style="rounded=0;whiteSpace=wrap;html=1;fontSize=12;strokeWidth=1;imageWidth=24;" vertex="1" parent="1">
          <mxGeometry x="50" y="310" width="120" height="60" as="geometry" />
        </mxCell>
        <mxCell id="1fMMj_ESsbeUDZiiFBq4-130" style="edgeStyle=orthogonalEdgeStyle;rounded=0;orthogonalLoop=1;jettySize=auto;html=1;entryX=0;entryY=0.5;entryDx=0;entryDy=0;fontSize=12;" edge="1" parent="1" source="1fMMj_ESsbeUDZiiFBq4-131" target="1fMMj_ESsbeUDZiiFBq4-136">
          <mxGeometry relative="1" as="geometry" />
        </mxCell>
        <mxCell id="1fMMj_ESsbeUDZiiFBq4-131" value="check the followers" style="rounded=0;whiteSpace=wrap;html=1;fontSize=12;" vertex="1" parent="1">
          <mxGeometry x="180" y="310" width="120" height="60" as="geometry" />
        </mxCell>
        <mxCell id="1fMMj_ESsbeUDZiiFBq4-132" value="logs storage" style="shape=cylinder3;whiteSpace=wrap;html=1;boundedLbl=1;backgroundOutline=1;size=15;fontSize=12;" vertex="1" parent="1">
          <mxGeometry x="680" y="60" width="60" height="80" as="geometry" />
        </mxCell>
        <mxCell id="1fMMj_ESsbeUDZiiFBq4-133" style="edgeStyle=orthogonalEdgeStyle;rounded=0;orthogonalLoop=1;jettySize=auto;html=1;entryX=0;entryY=0.5;entryDx=0;entryDy=0;fontSize=12;" edge="1" parent="1" source="1fMMj_ESsbeUDZiiFBq4-134" target="1fMMj_ESsbeUDZiiFBq4-142">
          <mxGeometry relative="1" as="geometry" />
        </mxCell>
        <mxCell id="1fMMj_ESsbeUDZiiFBq4-134" value="data downloaded from instagram" style="shape=cylinder3;whiteSpace=wrap;html=1;boundedLbl=1;backgroundOutline=1;size=15;fontSize=12;" vertex="1" parent="1">
          <mxGeometry x="310" y="90" width="70" height="100" as="geometry" />
        </mxCell>
        <mxCell id="1fMMj_ESsbeUDZiiFBq4-135" style="edgeStyle=orthogonalEdgeStyle;rounded=0;orthogonalLoop=1;jettySize=auto;html=1;entryX=0;entryY=0.5;entryDx=0;entryDy=0;fontSize=12;" edge="1" parent="1" source="1fMMj_ESsbeUDZiiFBq4-136" target="1fMMj_ESsbeUDZiiFBq4-139">
          <mxGeometry relative="1" as="geometry" />
        </mxCell>
        <mxCell id="1fMMj_ESsbeUDZiiFBq4-136" value="queue&amp;nbsp; the videos from followers which are posted in last 24 hours" style="rounded=0;whiteSpace=wrap;html=1;fontSize=12;" vertex="1" parent="1">
          <mxGeometry x="310" y="310" width="120" height="60" as="geometry" />
        </mxCell>
        <mxCell id="1fMMj_ESsbeUDZiiFBq4-137" style="edgeStyle=orthogonalEdgeStyle;rounded=0;orthogonalLoop=1;jettySize=auto;html=1;exitX=1;exitY=0.5;exitDx=0;exitDy=0;entryX=0;entryY=0.5;entryDx=0;entryDy=0;fontSize=12;" edge="1" parent="1" source="1fMMj_ESsbeUDZiiFBq4-139" target="1fMMj_ESsbeUDZiiFBq4-141">
          <mxGeometry relative="1" as="geometry" />
        </mxCell>
        <mxCell id="1fMMj_ESsbeUDZiiFBq4-138" style="edgeStyle=orthogonalEdgeStyle;rounded=0;orthogonalLoop=1;jettySize=auto;html=1;exitX=0.633;exitY=0.11;exitDx=0;exitDy=0;exitPerimeter=0;fontSize=12;" edge="1" parent="1" source="1fMMj_ESsbeUDZiiFBq4-151">
          <mxGeometry relative="1" as="geometry">
            <mxPoint x="520" y="300" as="sourcePoint" />
            <mxPoint x="720" y="150" as="targetPoint" />
          </mxGeometry>
        </mxCell>
        <mxCell id="1fMMj_ESsbeUDZiiFBq4-139" value="download the 5&amp;nbsp; videos from queue from bottom(fifo)" style="rounded=1;whiteSpace=wrap;html=1;fontSize=12;" vertex="1" parent="1">
          <mxGeometry x="440" y="310" width="120" height="60" as="geometry" />
        </mxCell>
        <mxCell id="1fMMj_ESsbeUDZiiFBq4-140" style="edgeStyle=orthogonalEdgeStyle;rounded=0;orthogonalLoop=1;jettySize=auto;html=1;entryX=1;entryY=0.5;entryDx=0;entryDy=0;fontSize=12;" edge="1" parent="1" source="1fMMj_ESsbeUDZiiFBq4-141" target="1fMMj_ESsbeUDZiiFBq4-142">
          <mxGeometry relative="1" as="geometry" />
        </mxCell>
        <mxCell id="1fMMj_ESsbeUDZiiFBq4-141" value="get the meta data of the downloaded 5 videos and save in json format&amp;nbsp;" style="rounded=0;whiteSpace=wrap;html=1;fontSize=12;" vertex="1" parent="1">
          <mxGeometry x="580" y="310" width="120" height="60" as="geometry" />
        </mxCell>
        <mxCell id="1fMMj_ESsbeUDZiiFBq4-142" value="metadata&amp;nbsp; of videos&amp;nbsp;" style="ellipse;whiteSpace=wrap;html=1;" vertex="1" parent="1">
          <mxGeometry x="480" y="30" width="120" height="80" as="geometry" />
        </mxCell>
        <mxCell id="1fMMj_ESsbeUDZiiFBq4-143" value="video data" style="ellipse;whiteSpace=wrap;html=1;fontSize=12;" vertex="1" parent="1">
          <mxGeometry x="480" y="130" width="120" height="80" as="geometry" />
        </mxCell>
        <mxCell id="1fMMj_ESsbeUDZiiFBq4-144" style="edgeStyle=orthogonalEdgeStyle;rounded=0;orthogonalLoop=1;jettySize=auto;html=1;entryX=0.032;entryY=0.638;entryDx=0;entryDy=0;entryPerimeter=0;fontSize=12;" edge="1" parent="1" source="1fMMj_ESsbeUDZiiFBq4-134" target="1fMMj_ESsbeUDZiiFBq4-143">
          <mxGeometry relative="1" as="geometry" />
        </mxCell>
        <mxCell id="1fMMj_ESsbeUDZiiFBq4-145" style="edgeStyle=orthogonalEdgeStyle;rounded=0;orthogonalLoop=1;jettySize=auto;html=1;entryX=0.712;entryY=1.038;entryDx=0;entryDy=0;entryPerimeter=0;fontSize=12;" edge="1" parent="1" source="1fMMj_ESsbeUDZiiFBq4-139" target="1fMMj_ESsbeUDZiiFBq4-143">
          <mxGeometry relative="1" as="geometry" />
        </mxCell>
        <mxCell id="1fMMj_ESsbeUDZiiFBq4-146" value="" style="edgeStyle=orthogonalEdgeStyle;rounded=0;orthogonalLoop=1;jettySize=auto;html=1;entryX=0.5;entryY=1;entryDx=0;entryDy=0;entryPerimeter=0;fontSize=12;" edge="1" parent="1" source="1fMMj_ESsbeUDZiiFBq4-141" target="1fMMj_ESsbeUDZiiFBq4-147">
          <mxGeometry relative="1" as="geometry">
            <mxPoint x="580" y="340" as="sourcePoint" />
            <mxPoint x="210" y="200" as="targetPoint" />
          </mxGeometry>
        </mxCell>
        <mxCell id="1fMMj_ESsbeUDZiiFBq4-147" value="metadata process logs" style="text;html=1;strokeColor=none;fillColor=none;align=center;verticalAlign=middle;whiteSpace=wrap;rounded=0;fontSize=12;" vertex="1" parent="1">
          <mxGeometry x="650" y="220" width="60" height="30" as="geometry" />
        </mxCell>
        <mxCell id="1fMMj_ESsbeUDZiiFBq4-148" style="edgeStyle=orthogonalEdgeStyle;rounded=0;orthogonalLoop=1;jettySize=auto;html=1;entryX=0.607;entryY=1.093;entryDx=0;entryDy=0;entryPerimeter=0;fontSize=12;" edge="1" parent="1" source="1fMMj_ESsbeUDZiiFBq4-147" target="1fMMj_ESsbeUDZiiFBq4-132">
          <mxGeometry relative="1" as="geometry" />
        </mxCell>
        <mxCell id="1fMMj_ESsbeUDZiiFBq4-149" value="&lt;h1 style=&quot;font-size: 12px;&quot;&gt;&lt;span style=&quot;background-color: initial; font-size: 12px;&quot;&gt;stage:1&lt;/span&gt;&lt;/h1&gt;&lt;h1 style=&quot;font-size: 12px;&quot;&gt;&lt;span style=&quot;font-size: 12px; font-weight: 400;&quot;&gt;system--&amp;gt;instageam--&amp;gt;system&lt;/span&gt;&lt;/h1&gt;&lt;div style=&quot;font-size: 12px;&quot;&gt;instagram role is completed&lt;/div&gt;" style="text;html=1;strokeColor=none;fillColor=none;spacing=5;spacingTop=-20;whiteSpace=wrap;overflow=hidden;rounded=0;fontSize=12;" vertex="1" parent="1">
          <mxGeometry x="50" y="80" width="190" height="120" as="geometry" />
        </mxCell>
        <mxCell id="1fMMj_ESsbeUDZiiFBq4-150" value="" style="edgeStyle=orthogonalEdgeStyle;rounded=0;orthogonalLoop=1;jettySize=auto;html=1;exitX=0.633;exitY=0.11;exitDx=0;exitDy=0;exitPerimeter=0;fontSize=12;" edge="1" parent="1" source="1fMMj_ESsbeUDZiiFBq4-139" target="1fMMj_ESsbeUDZiiFBq4-151">
          <mxGeometry relative="1" as="geometry">
            <mxPoint x="516" y="317" as="sourcePoint" />
            <mxPoint x="720" y="150" as="targetPoint" />
          </mxGeometry>
        </mxCell>
        <mxCell id="1fMMj_ESsbeUDZiiFBq4-151" value="Text" style="text;html=1;strokeColor=none;fillColor=none;align=center;verticalAlign=middle;whiteSpace=wrap;rounded=0;fontSize=12;" vertex="1" parent="1">
          <mxGeometry x="690" y="215" width="60" height="30" as="geometry" />
        </mxCell>
      </root>
    </mxGraphModel>
  </diagram>
</mxfile>
